<svg xmlns="http://www.w3.org/2000/svg" viewBox="0 0 2317.77 1896.21"><defs><style>.cls-1{fill:#fff;}</style></defs><g id="Layer_2" data-name="Layer 2"><g id="_0" data-name="0"><path class="cls-1" d="M270.11,916.88q159.51,0,236.48,71.13t76.95,213.93q0,144.46-74.16,218.88t-221.66,74.36l-205.49-1.72h-74v-22.77l74-11.63V950.83l-74-11.18V916.88Zm223.58,284.2q0-120.82-65.15-183.17t-186-62.37h-77.4V1453q51.6,3.45,122.53,3.44,105.76,0,155.89-62.36T493.69,1201.08Z"/><path class="cls-1" d="M617.93,1468.17l74-9.11V1068.5l-74-8.76v-17.83H1652.05V1150h-28.34L1610,1076.93c-32.14-3.14-680.19-4.75-740.92-4.75H774.84v176.46H930.49l13.31-53.88h27.52v138.73H943.8L930.49,1279H774.84v184.18H888.36q110.92,0,145.33-5.38l24.53-83.51h28.33l-8.14,119.2H617.92Z"/><path class="cls-1" d="M1316.88,1470.69v22.77H1150.81v-22.77l62.31-11.63,187.78-306.52h81.73l195.16,306.52,70.39,11.63v22.77h-220.3v-22.77l57.31-11.63-48.83-83.37h-227l-49.61,83.37Zm104.24-281.84L1322.22,1353H1523Z"/><path class="cls-1" d="M2309.5,916.88v22.77l-73.95,11.18v508.23l73.95,11.63v22.77h-73.95l-205.49,1.72q-147.48,0-221.66-74.36t-74.16-218.88q0-142.76,76.94-213.93t236.49-71.13Zm-435.34,477.24q50.13,62.4,155.9,62.36,70.89,0,122.52-3.44V955.54h-77.39q-120.82,0-186,62.37t-65.15,183.17Q1824.08,1331.79,1874.16,1394.12Z"/><path class="cls-1" d="M40.75,1752.68q0,55.89,17.35,83.82t53,28q20.5,0,37.1-14t28.18-43.7L208.61,1820q-30.24,76.17-97.92,76.17-53.34,0-82-37.06T0,1752.68q0-141.09,108.66-141.07,68.73,0,94.47,68.59l-34.06,13.31c-5-15.44-12.81-27.6-23.39-36.53a55.38,55.38,0,0,0-36.82-13.43q-34.67,0-51.41,26.41T40.75,1752.68Z"/><path class="cls-1" d="M507.42,1892.11V1764.56H401.6v127.55H362.88v-276.2H401.6V1731.8H507.42V1615.91h38.73v276.2Z"/><path class="cls-1" d="M892.61,1892.11l-28-78.21H750.49l-27.77,78.21H683l103.39-276.2h44l101.56,276.2Zm-84.74-246.72-2.44,8-14,43.4-30.61,86.61H854.7L819.62,1681Z"/><path class="cls-1" d="M1205.41,1892.11,1100,1660.75q3.23,35.19,3.25,52v179.36h-34.46v-276.2h45l107,233a458.09,458.09,0,0,1-3.65-56.1v-176.9H1252v276.2Z"/><path class="cls-1" d="M1558.36,1892.11l-105.42-231.36q3.22,35.19,3.25,52v179.36h-34.47v-276.2h45l107,233a456.11,456.11,0,0,1-3.65-56.1v-176.9H1605v276.2Z"/><path class="cls-1" d="M1774.67,1892.11v-276.2H1961v31.94H1813.39v86.4h135.42v31.53H1813.39v94.39h155.9v31.94Z"/><path class="cls-1" d="M2142.82,1892.11v-276.2h38.72v244.26h136.23v31.94Z"/><path class="cls-1" d="M1158.89,0C890.41,0,672.78,217.64,672.78,486.11s217.63,486.11,486.11,486.11S1645,754.58,1645,486.11,1427.36,0,1158.89,0Zm0,956C899.36,956,689,745.63,689,486.11S899.36,16.2,1158.89,16.2,1628.8,226.59,1628.8,486.11,1418.41,956,1158.89,956Z"/><g id="LWPOLYLINE"><path class="cls-1" d="M1105.69,288.46h106.39a4.86,4.86,0,1,1,0,9.72H1105.69a4.86,4.86,0,0,1,0-9.72Z"/><path class="cls-1" d="M1212.08,298.78H1105.69a5.46,5.46,0,0,1,0-10.92h106.39a5.46,5.46,0,1,1,0,10.92Zm-106.39-9.72a4.26,4.26,0,0,0,0,8.52h106.39a4.26,4.26,0,0,0,0-8.52Z"/></g><g id="LINE"><line class="cls-1" x1="1212.08" y1="293.32" x2="1105.69" y2="293.32"/><rect class="cls-1" x="1105.69" y="292.72" width="106.39" height="1.21"/></g><g id="LWPOLYLINE-2" data-name="LWPOLYLINE"><path class="cls-1" d="M1042.17,321.51H1275.6a4.87,4.87,0,0,1,0,9.73H1042.17a4.87,4.87,0,0,1,0-9.73Z"/><path class="cls-1" d="M1275.6,331.84H1042.17a5.47,5.47,0,0,1,0-10.93H1275.6a5.47,5.47,0,1,1,0,10.93Zm-233.43-9.72a4.26,4.26,0,0,0,0,8.51H1275.6a4.26,4.26,0,1,0,0-8.51Z"/></g><g id="LINE-2" data-name="LINE"><line class="cls-1" x1="1275.6" y1="326.38" x2="1042.17" y2="326.38"/><rect class="cls-1" x="1042.17" y="325.77" width="233.43" height="1.21"/></g><g id="LWPOLYLINE-3" data-name="LWPOLYLINE"><path class="cls-1" d="M1001.15,354.57h315.48a4.86,4.86,0,0,1,0,9.72H1001.15a4.86,4.86,0,0,1,0-9.72Z"/><path class="cls-1" d="M1316.63,364.9H1001.15a5.47,5.47,0,1,1,0-10.93h315.48a5.47,5.47,0,0,1,0,10.93Zm-315.48-9.73a4.26,4.26,0,0,0,0,8.52h315.48a4.26,4.26,0,0,0,0-8.52Z"/></g><g id="LINE-3" data-name="LINE"><line class="cls-1" x1="1316.63" y1="359.43" x2="1001.15" y2="359.43"/><rect class="cls-1" x="1001.15" y="358.83" width="315.48" height="1.21"/></g><g id="LWPOLYLINE-4" data-name="LWPOLYLINE"><path class="cls-1" d="M974,387.63h369.86a4.86,4.86,0,1,1,0,9.72H974a4.86,4.86,0,0,1,0-9.72Z"/><path class="cls-1" d="M1343.82,398H974A5.47,5.47,0,1,1,974,387h369.86a5.47,5.47,0,0,1,0,10.93ZM974,388.23a4.26,4.26,0,0,0,0,8.52h369.86a4.26,4.26,0,0,0,0-8.52Z"/></g><g id="LINE-4" data-name="LINE"><line class="cls-1" x1="1343.82" y1="392.49" x2="973.96" y2="392.49"/><rect class="cls-1" x="973.96" y="391.88" width="369.86" height="1.21"/></g><g id="LWPOLYLINE-5" data-name="LWPOLYLINE"><path class="cls-1" d="M962.88,420.68h392a4.86,4.86,0,0,1,0,9.72h-392a4.86,4.86,0,0,1,0-9.72Z"/><path class="cls-1" d="M1354.89,431h-392a5.47,5.47,0,0,1,0-10.93h392a5.47,5.47,0,1,1,0,10.93Zm-392-9.72a4.26,4.26,0,1,0,0,8.51h392a4.26,4.26,0,1,0,0-8.51Z"/></g><g id="LINE-5" data-name="LINE"><line class="cls-1" x1="1354.89" y1="425.54" x2="962.88" y2="425.54"/><rect class="cls-1" x="962.88" y="424.94" width="392.01" height="1.21"/></g><g id="LWPOLYLINE-6" data-name="LWPOLYLINE"><path class="cls-1" d="M954.82,453.74H1363a4.86,4.86,0,0,1,0,9.72H954.82a4.86,4.86,0,0,1,0-9.72Z"/><path class="cls-1" d="M1363,464.06H954.82a5.47,5.47,0,0,1,0-10.93H1363a5.47,5.47,0,0,1,0,10.93Zm-408.13-9.72a4.26,4.26,0,0,0,0,8.52H1363a4.26,4.26,0,0,0,0-8.52Z"/></g><g id="LINE-6" data-name="LINE"><line class="cls-1" x1="1362.95" y1="458.6" x2="954.82" y2="458.6"/><rect class="cls-1" x="954.82" y="458" width="408.13" height="1.21"/></g><g id="LWPOLYLINE-7" data-name="LWPOLYLINE"><path class="cls-1" d="M958.85,486.79h400.07a4.87,4.87,0,0,1,0,9.73H958.85a4.87,4.87,0,0,1,0-9.73Z"/><path class="cls-1" d="M1358.92,497.12H958.85a5.47,5.47,0,0,1,0-10.93h400.07a5.47,5.47,0,1,1,0,10.93ZM958.85,487.4a4.26,4.26,0,1,0,0,8.51h400.07a4.26,4.26,0,1,0,0-8.51Z"/></g><g id="LINE-7" data-name="LINE"><line class="cls-1" x1="1358.92" y1="491.65" x2="958.85" y2="491.65"/><rect class="cls-1" x="958.85" y="491.05" width="400.07" height="1.21"/></g><g id="LWPOLYLINE-8" data-name="LWPOLYLINE"><path class="cls-1" d="M1094.8,519.85H1223a4.86,4.86,0,0,1,0,9.72H1094.8a4.86,4.86,0,1,1,0-9.72Z"/><path class="cls-1" d="M1223,530.17H1094.8a5.46,5.46,0,0,1,0-10.92H1223a5.46,5.46,0,1,1,0,10.92Zm-128.17-9.72a4.26,4.26,0,0,0,0,8.52H1223a4.26,4.26,0,0,0,0-8.52Z"/></g><g id="LINE-8" data-name="LINE"><line class="cls-1" x1="1222.97" y1="524.71" x2="1094.8" y2="524.71"/><rect class="cls-1" x="1094.8" y="524.11" width="128.17" height="1.21"/></g><g id="LWPOLYLINE-9" data-name="LWPOLYLINE"><path class="cls-1" d="M1123.5,552.9h70.77a4.87,4.87,0,0,1,0,9.73H1123.5a4.87,4.87,0,0,1,0-9.73Z"/><path class="cls-1" d="M1194.27,563.23H1123.5a5.47,5.47,0,0,1,0-10.93h70.77a5.47,5.47,0,0,1,0,10.93Zm-70.77-9.72a4.26,4.26,0,0,0,0,8.51h70.77a4.26,4.26,0,1,0,0-8.51Z"/></g><g id="LINE-9" data-name="LINE"><line class="cls-1" x1="1194.27" y1="557.77" x2="1123.5" y2="557.77"/><rect class="cls-1" x="1123.5" y="557.16" width="70.77" height="1.21"/></g><g id="LWPOLYLINE-10" data-name="LWPOLYLINE"><path class="cls-1" d="M1124,586h69.76a4.86,4.86,0,1,1,0,9.72H1124a4.86,4.86,0,1,1,0-9.72Z"/><path class="cls-1" d="M1193.77,596.28H1124a5.46,5.46,0,1,1,0-10.92h69.76a5.46,5.46,0,1,1,0,10.92ZM1124,586.56a4.26,4.26,0,1,0,0,8.52h69.76a4.26,4.26,0,0,0,0-8.52Z"/></g><g id="LINE-10" data-name="LINE"><line class="cls-1" x1="1193.77" y1="590.82" x2="1124.01" y2="590.82"/><rect class="cls-1" x="1124.01" y="590.22" width="69.76" height="1.21"/></g><g id="LWPOLYLINE-11" data-name="LWPOLYLINE"><path class="cls-1" d="M1079.19,685.13h159.39a4.86,4.86,0,1,1,0,9.72H1079.19a4.86,4.86,0,0,1,0-9.72Z"/><path class="cls-1" d="M1238.58,695.45H1079.19a5.47,5.47,0,0,1,0-10.93h159.39a5.47,5.47,0,0,1,0,10.93Zm-159.39-9.72a4.26,4.26,0,0,0,0,8.52h159.39a4.26,4.26,0,1,0,0-8.52Z"/></g><g id="LINE-11" data-name="LINE"><line class="cls-1" x1="1238.58" y1="689.99" x2="1079.19" y2="689.99"/><rect class="cls-1" x="1079.19" y="689.38" width="159.39" height="1.21"/></g><g id="LWPOLYLINE-12" data-name="LWPOLYLINE"><path class="cls-1" d="M1075,718.18h167.75a4.86,4.86,0,0,1,0,9.72H1075a4.86,4.86,0,1,1,0-9.72Z"/><path class="cls-1" d="M1242.76,728.51H1075a5.47,5.47,0,0,1,0-10.93h167.75a5.47,5.47,0,0,1,0,10.93ZM1075,718.79a4.26,4.26,0,0,0,0,8.51h167.75a4.26,4.26,0,1,0,0-8.51Z"/></g><g id="LINE-12" data-name="LINE"><line class="cls-1" x1="1242.76" y1="723.04" x2="1075.01" y2="723.04"/><rect class="cls-1" x="1075.01" y="722.44" width="167.75" height="1.21"/></g><g id="LWPOLYLINE-13" data-name="LWPOLYLINE"><path class="cls-1" d="M1109.91,751.24h98a4.86,4.86,0,1,1,0,9.72h-98a4.86,4.86,0,0,1,0-9.72Z"/><path class="cls-1" d="M1207.87,761.56h-98a5.46,5.46,0,1,1,0-10.92h98a5.46,5.46,0,1,1,0,10.92Zm-98-9.72a4.26,4.26,0,0,0,0,8.52h98a4.26,4.26,0,0,0,0-8.52Z"/></g><g id="LINE-13" data-name="LINE"><line class="cls-1" x1="1207.87" y1="756.1" x2="1109.91" y2="756.1"/><rect class="cls-1" x="1109.91" y="755.5" width="97.96" height="1.21"/></g><g id="LWPOLYLINE-14" data-name="LWPOLYLINE"><path class="cls-1" d="M985.47,619h150.45a4.86,4.86,0,0,1,0,9.72H985.47a4.86,4.86,0,1,1,0-9.72Z"/><path class="cls-1" d="M1135.92,629.34H985.47a5.47,5.47,0,0,1,0-10.93h150.45a5.47,5.47,0,1,1,0,10.93Zm-150.45-9.72a4.26,4.26,0,1,0,0,8.51h150.45a4.26,4.26,0,1,0,0-8.51Z"/></g><g id="LWPOLYLINE-15" data-name="LWPOLYLINE"><path class="cls-1" d="M1009.78,652.07h122.76a4.86,4.86,0,1,1,0,9.72H1009.78a4.86,4.86,0,0,1,0-9.72Z"/><path class="cls-1" d="M1132.54,662.4H1009.78a5.47,5.47,0,1,1,0-10.93h122.76a5.47,5.47,0,0,1,0,10.93Zm-122.76-9.73a4.26,4.26,0,1,0,0,8.52h122.76a4.26,4.26,0,0,0,0-8.52Z"/></g><g id="LINE-14" data-name="LINE"><line class="cls-1" x1="1132.54" y1="656.93" x2="1009.78" y2="656.93"/><rect class="cls-1" x="1009.78" y="656.33" width="122.76" height="1.21"/></g><g id="LWPOLYLINE-16" data-name="LWPOLYLINE"><path class="cls-1" d="M1181.85,619H1332.3a4.86,4.86,0,1,1,0,9.72H1181.85a4.86,4.86,0,1,1,0-9.72Z"/><path class="cls-1" d="M1332.3,629.34H1181.85a5.47,5.47,0,0,1,0-10.93H1332.3a5.47,5.47,0,1,1,0,10.93Zm-150.45-9.72a4.26,4.26,0,1,0,0,8.51H1332.3a4.26,4.26,0,1,0,0-8.51Z"/></g><g id="LINE-15" data-name="LINE"><line class="cls-1" x1="1332.3" y1="623.88" x2="1181.85" y2="623.88"/><rect class="cls-1" x="1181.85" y="623.27" width="150.45" height="1.21"/></g><g id="LWPOLYLINE-17" data-name="LWPOLYLINE"><path class="cls-1" d="M1185.23,652.07H1308a4.86,4.86,0,0,1,0,9.72H1185.23a4.86,4.86,0,0,1,0-9.72Z"/><path class="cls-1" d="M1308,662.4H1185.23a5.47,5.47,0,0,1,0-10.93H1308a5.47,5.47,0,0,1,0,10.93Zm-122.77-9.73a4.26,4.26,0,0,0,0,8.52H1308a4.26,4.26,0,0,0,0-8.52Z"/></g><g id="LINE-16" data-name="LINE"><line class="cls-1" x1="1308" y1="656.93" x2="1185.23" y2="656.93"/><rect class="cls-1" x="1185.23" y="656.33" width="122.76" height="1.21"/></g><g id="LWPOLYLINE-18" data-name="LWPOLYLINE"><path class="cls-1" d="M992.22,586h42a4.86,4.86,0,0,1,0,9.72h-42a4.86,4.86,0,0,1,0-9.72Z"/><path class="cls-1" d="M1034.17,596.28h-42a5.46,5.46,0,0,1,0-10.92h42a5.46,5.46,0,1,1,0,10.92Zm-42-9.72a4.26,4.26,0,1,0,0,8.52h42a4.26,4.26,0,0,0,0-8.52Z"/></g><g id="LINE-17" data-name="LINE"><line class="cls-1" x1="1034.17" y1="590.82" x2="992.22" y2="590.82"/><rect class="cls-1" x="992.22" y="590.22" width="41.95" height="1.21"/></g><g id="LWPOLYLINE-19" data-name="LWPOLYLINE"><path class="cls-1" d="M983,552.9h42a4.87,4.87,0,0,1,0,9.73H983a4.87,4.87,0,0,1,0-9.73Z"/><path class="cls-1" d="M1025,563.23H983a5.47,5.47,0,0,1,0-10.93h42a5.47,5.47,0,0,1,0,10.93Zm-42-9.72a4.26,4.26,0,1,0,0,8.51h42a4.26,4.26,0,1,0,0-8.51Z"/></g><g id="LINE-18" data-name="LINE"><line class="cls-1" x1="1025.02" y1="557.77" x2="983" y2="557.77"/><rect class="cls-1" x="983" y="557.16" width="42.02" height="1.21"/></g><g id="LWPOLYLINE-20" data-name="LWPOLYLINE"><path class="cls-1" d="M976.65,519.85h90.87a4.86,4.86,0,1,1,0,9.72H976.65a4.86,4.86,0,0,1,0-9.72Z"/><path class="cls-1" d="M1067.52,530.17H976.65a5.46,5.46,0,1,1,0-10.92h90.87a5.46,5.46,0,1,1,0,10.92Zm-90.87-9.72a4.26,4.26,0,0,0,0,8.52h90.87a4.26,4.26,0,0,0,0-8.52Z"/></g><g id="LINE-19" data-name="LINE"><line class="cls-1" x1="1067.52" y1="524.71" x2="976.65" y2="524.71"/><rect class="cls-1" x="976.65" y="524.11" width="90.87" height="1.21"/></g><g id="LWPOLYLINE-21" data-name="LWPOLYLINE"><path class="cls-1" d="M1341.12,529.57h-90.87a4.86,4.86,0,1,1,0-9.72h90.87a4.86,4.86,0,1,1,0,9.72Z"/><path class="cls-1" d="M1341.12,530.17h-90.87a5.46,5.46,0,0,1,0-10.92h90.87a5.46,5.46,0,1,1,0,10.92Zm-90.87-9.72a4.26,4.26,0,0,0,0,8.52h90.87a4.26,4.26,0,1,0,0-8.52Z"/></g><g id="LINE-20" data-name="LINE"><line class="cls-1" x1="1250.25" y1="524.71" x2="1341.12" y2="524.71"/><rect class="cls-1" x="1250.25" y="524.11" width="90.87" height="1.21"/></g><g id="LWPOLYLINE-22" data-name="LWPOLYLINE"><path class="cls-1" d="M1334.77,562.63h-42a4.87,4.87,0,1,1,0-9.73h42a4.87,4.87,0,0,1,0,9.73Z"/><path class="cls-1" d="M1334.77,563.23h-42a5.47,5.47,0,1,1,0-10.93h42a5.47,5.47,0,1,1,0,10.93Zm-42-9.72a4.26,4.26,0,1,0,0,8.51h42a4.26,4.26,0,1,0,0-8.51Z"/></g><g id="LINE-21" data-name="LINE"><line class="cls-1" x1="1292.76" y1="557.77" x2="1334.77" y2="557.77"/><rect class="cls-1" x="1292.76" y="557.16" width="42.02" height="1.21"/></g><g id="LWPOLYLINE-23" data-name="LWPOLYLINE"><path class="cls-1" d="M1325.55,595.68h-41.94a4.86,4.86,0,1,1,0-9.72h41.94a4.86,4.86,0,1,1,0,9.72Z"/><path class="cls-1" d="M1325.55,596.28h-41.94a5.46,5.46,0,1,1,0-10.92h41.94a5.46,5.46,0,1,1,0,10.92Zm-41.94-9.72a4.26,4.26,0,1,0,0,8.52h41.94a4.26,4.26,0,0,0,0-8.52Z"/></g><g id="LINE-22" data-name="LINE"><line class="cls-1" x1="1283.61" y1="590.82" x2="1325.55" y2="590.82"/><rect class="cls-1" x="1283.61" y="590.22" width="41.95" height="1.21"/></g><g id="LWPOLYLINE-24" data-name="LWPOLYLINE"><path class="cls-1" d="M869.56,212l252.8-146.44a9.83,9.83,0,0,1,4.88-1.31A9.73,9.73,0,0,1,1137,74v134.4a9.72,9.72,0,0,1-9.26,9.71l-252.8,12A9.73,9.73,0,0,1,869.56,212Z"/></g><g id="LWPOLYLINE-25" data-name="LWPOLYLINE"><path class="cls-1" d="M1448.21,212,1195.41,65.57A9.71,9.71,0,0,0,1180.82,74v134.4a9.71,9.71,0,0,0,9.26,9.71l252.79,12a9.73,9.73,0,0,0,5.34-18.13Z"/></g><g id="LWPOLYLINE-26" data-name="LWPOLYLINE"><path class="cls-1" d="M773.29,408.88V676.39a9.71,9.71,0,0,0,13.55,8.93l92.81-39.72A9.73,9.73,0,0,0,884.82,633L792,405.22a9.72,9.72,0,0,0-18.72,3.66Z"/></g><g id="LWPOLYLINE-27" data-name="LWPOLYLINE"><path class="cls-1" d="M913.34,682.7l131.34,162.95a9.72,9.72,0,0,1-12.45,14.51l-218.81-127a9.71,9.71,0,0,1,1.18-17.4l87.47-36A9.72,9.72,0,0,1,913.34,682.7Z"/></g><g id="LWPOLYLINE-28" data-name="LWPOLYLINE"><path class="cls-1" d="M1285.54,860.16l218.82-127a9.73,9.73,0,0,0-1.18-17.4l-87.48-36a9.72,9.72,0,0,0-11.27,2.89L1273.1,845.65a9.72,9.72,0,0,0,12.44,14.51Z"/></g><g id="LWPOLYLINE-29" data-name="LWPOLYLINE"><path class="cls-1" d="M1530.94,685.32l-92.81-39.72A9.73,9.73,0,0,1,1433,633l92.81-227.77a9.72,9.72,0,0,1,18.73,3.66V676.39a9.73,9.73,0,0,1-13.55,8.93Z"/></g></g></g></svg>